<?xml version="1.0" standalone="no"?>
<!DOCTYPE svg PUBLIC "-//W3C//DTD SVG 20010904//EN"
 "http://www.w3.org/TR/2001/REC-SVG-20010904/DTD/svg10.dtd">
<svg version="1.0" xmlns="http://www.w3.org/2000/svg"
 width="1024.000000pt" height="1024.000000pt" viewBox="0 0 1024.000000 1024.000000"
 preserveAspectRatio="xMidYMid meet">
<metadata>
Created by potrace 1.14, written by Peter Selinger 2001-2017
</metadata>
<g transform="translate(0.000000,1024.000000) scale(0.100000,-0.100000)"
fill="#000000" stroke="none">
<path d="M3187 10233 c-14 -13 -6 -20 25 -20 18 0 34 -5 36 -11 2 -7 10 -12
18 -12 9 0 13 -3 10 -8 -2 -4 9 -15 25 -24 16 -9 28 -13 26 -8 -1 4 3 8 8 8 6
0 9 -4 8 -8 -2 -5 6 -7 17 -5 12 2 43 -14 80 -41 33 -25 64 -43 68 -40 5 3 18
-2 28 -12 11 -9 26 -18 33 -20 7 -2 22 -13 32 -25 15 -18 20 -19 28 -8 6 9 11
10 15 2 4 -6 4 -11 0 -11 -3 0 -1 -7 6 -15 7 -9 19 -14 26 -11 7 3 22 -6 33
-20 11 -14 21 -24 23 -22 7 6 47 -30 40 -37 -4 -4 5 -6 20 -3 15 3 26 2 23 -2
-2 -3 5 -13 16 -20 10 -8 19 -20 19 -27 0 -7 10 -17 21 -24 15 -8 19 -8 15 0
-4 6 -3 11 1 11 5 0 13 -10 18 -22 6 -14 17 -22 28 -20 9 2 17 -2 17 -7 0 -5
9 -8 21 -6 15 3 19 0 16 -10 -7 -15 16 -39 27 -28 4 4 4 0 1 -9 -5 -12 0 -17
17 -20 13 -2 22 -9 20 -16 -1 -8 2 -11 7 -8 5 4 13 0 18 -7 4 -7 18 -14 31
-14 38 -1 42 -3 42 -13 0 -5 -7 -7 -16 -3 -14 5 -15 3 -5 -16 7 -12 16 -19 21
-16 6 3 7 -1 4 -10 -5 -11 3 -17 27 -22 19 -4 37 -6 41 -5 5 1 7 -1 6 -6 -4
-11 28 -53 35 -45 4 3 7 1 7 -5 0 -6 9 -14 20 -17 11 -4 18 -10 16 -14 -3 -4
8 -20 25 -35 16 -15 26 -21 23 -12 -3 9 -2 16 4 16 5 0 13 -12 16 -26 7 -25 8
-26 22 -8 14 18 15 18 8 -6 -6 -23 -6 -24 11 -10 17 14 18 13 12 -2 -6 -18 40
-84 51 -73 3 3 14 -2 24 -12 10 -9 18 -12 18 -7 0 5 5 2 10 -6 5 -8 13 -15 17
-15 4 0 22 -9 38 -21 17 -11 38 -24 49 -27 11 -5 16 -13 12 -22 -4 -13 -2 -13
14 -5 20 11 36 -2 25 -20 -3 -6 1 -7 9 -4 9 3 16 2 16 -4 0 -6 10 -8 23 -4 22
5 22 5 2 -17 l-19 -22 28 10 c17 7 25 7 21 1 -3 -6 1 -10 10 -10 9 0 25 -9 37
-20 12 -10 26 -16 32 -13 6 4 4 -1 -4 -11 -13 -16 -12 -18 10 -14 14 1 25 -2
25 -7 0 -13 35 -58 54 -70 10 -5 12 -4 7 3 -4 7 -2 12 3 12 6 0 11 -4 11 -10
0 -5 9 -10 20 -10 15 0 20 -7 20 -25 0 -14 5 -25 10 -25 6 0 10 5 10 12 0 6 7
3 15 -8 10 -13 14 -14 12 -4 -2 8 1 5 7 -7 5 -13 14 -23 19 -23 4 0 6 -4 3 -8
-2 -4 5 -19 15 -32 17 -21 19 -21 10 -3 -9 18 -8 20 9 16 12 -3 19 -12 18 -22
-2 -9 3 -15 11 -13 7 2 20 -6 28 -18 8 -11 18 -18 23 -15 8 5 37 -24 32 -34
-2 -3 2 -7 10 -9 10 -3 10 -2 -1 6 -11 8 -11 11 0 18 19 12 40 14 34 3 -3 -5
1 -21 9 -36 8 -16 15 -22 16 -15 0 6 4 12 10 12 5 0 7 -6 4 -13 -3 -8 1 -19 9
-25 11 -9 14 -8 14 3 0 8 -5 11 -10 8 -6 -3 -7 -1 -3 6 6 8 12 9 20 2 7 -6 15
-8 19 -5 3 3 4 -6 3 -20 -2 -14 1 -26 5 -26 5 0 9 5 9 11 0 6 6 9 13 6 6 -2
11 -10 9 -16 -1 -7 2 -10 8 -6 5 3 10 1 10 -6 0 -8 5 -8 16 2 14 11 19 9 36
-15 16 -21 23 -24 29 -14 7 10 9 9 9 -4 0 -10 9 -22 20 -28 14 -7 20 -7 20 0
0 5 5 10 11 10 5 0 7 -4 4 -10 -3 -5 2 -10 12 -10 10 0 14 -4 8 -8 -5 -4 -11
-13 -13 -21 -3 -12 0 -12 12 -2 11 9 16 9 22 0 5 -8 3 -10 -7 -4 -8 5 -3 -3
11 -18 32 -34 42 -34 36 -1 -4 20 -2 23 8 15 7 -6 15 -9 18 -6 3 3 4 -8 3 -23
-1 -25 1 -28 23 -24 19 4 23 2 17 -8 -6 -10 -3 -12 13 -8 14 4 20 2 16 -4 -5
-7 2 -9 20 -4 19 5 26 3 26 -8 0 -19 38 -46 56 -39 8 3 11 9 8 15 -3 5 -12 7
-20 4 -7 -3 -16 -1 -18 3 -3 5 4 8 16 7 11 0 26 -10 32 -21 17 -30 35 -41 79
-45 12 -1 16 -4 10 -7 -20 -8 -15 -19 10 -20 71 -6 333 -36 336 -39 2 -2 -11
-4 -30 -4 -47 0 -483 28 -539 35 -43 5 -432 35 -457 35 -10 0 -13 -87 -13
-404 0 -222 -3 -417 -6 -435 l-6 -31 -26 21 c-14 11 -45 24 -69 30 l-43 11 0
78 0 78 -92 6 c-51 3 -156 9 -233 13 l-140 8 -3 236 -2 236 -78 7 c-42 4 -87
10 -99 13 l-23 5 0 -703 c0 -387 -3 -728 -6 -757 -6 -45 -9 -50 -19 -35 -17
23 -115 26 -115 4 0 -8 -3 -11 -7 -7 -5 4 -8 35 -9 69 l0 62 -485 0 c-370 1
-497 4 -540 14 -50 12 -63 12 -104 -3 -42 -14 -135 -16 -818 -16 -423 0 -771
1 -773 3 -9 8 -16 209 -10 259 6 43 11 55 24 55 17 -1 130 12 167 19 190 36
637 37 1165 4 80 -5 246 -12 370 -16 265 -8 278 -9 286 -16 3 -4 18 -2 34 2
16 4 31 6 34 3 5 -6 73 -10 257 -17 70 -3 157 -11 195 -17 38 -7 94 -12 124
-13 l54 -1 8 39 c5 21 7 172 6 335 l-3 296 -45 -2 c-133 -8 -1210 -88 -1830
-137 -239 -19 -550 -42 -690 -51 -140 -9 -270 -19 -289 -21 l-34 -5 7 -182 c3
-100 6 -281 7 -402 1 -497 -1 -605 -11 -605 -5 0 -10 8 -11 18 -1 11 -4 9 -9
-8 -5 -14 -9 -18 -10 -10 -1 8 -6 2 -9 -15 -8 -33 -12 17 -36 485 -19 380 -37
938 -30 950 3 5 0 12 -6 16 -9 5 -11 -59 -5 -267 11 -451 15 -726 10 -687 l-5
36 -69 7 c-45 5 -82 3 -106 -5 -41 -14 -160 -8 -191 9 -12 6 -48 6 -98 0 -74
-8 -84 -7 -130 16 -49 24 -106 33 -235 39 -42 2 -83 11 -114 26 l-50 23 -65
-21 c-37 -11 -96 -23 -133 -27 l-68 -7 0 -478 c0 -402 2 -479 14 -474 22 8 26
-23 5 -42 -21 -19 -25 -60 -6 -67 9 -4 9 -8 0 -14 -7 -5 -11 -40 -12 -90 l-1
-82 35 22 c40 26 44 37 13 37 -19 1 -16 5 15 21 57 30 72 23 48 -23 l-19 -38
33 0 c18 0 39 7 46 16 7 9 37 28 66 41 30 14 56 29 59 34 8 13 -73 11 -95 -3
-15 -9 -25 -9 -43 -1 l-23 12 27 0 c37 1 121 39 113 51 -3 5 3 10 14 10 10 0
21 5 23 11 2 7 24 14 48 16 52 5 85 28 56 39 -9 4 -29 1 -44 -6 -45 -21 -65
-28 -99 -34 -41 -7 -44 10 -3 19 16 4 32 11 35 16 4 5 17 9 30 9 13 0 27 5 30
10 3 6 19 10 36 10 16 0 29 5 29 10 0 6 9 10 20 10 10 0 24 9 31 21 7 14 17
19 29 16 11 -3 24 1 30 8 13 16 50 26 50 14 0 -5 -7 -12 -15 -16 -9 -3 -15
-15 -13 -27 2 -17 -2 -20 -19 -18 -13 2 -23 -2 -23 -7 0 -6 -13 -11 -29 -11
-16 0 -34 -7 -41 -15 -20 -25 52 -20 75 5 15 17 19 17 32 4 17 -16 12 -27 -14
-30 -42 -6 -62 -15 -88 -40 -27 -24 -31 -25 -66 -14 -36 12 -39 12 -69 -19
-30 -30 -31 -31 -9 -31 27 0 154 36 184 53 11 5 43 23 72 39 28 15 58 28 67
28 9 0 16 5 16 11 0 8 -12 9 -37 4 -37 -7 -37 -6 -20 13 12 13 15 22 8 27 -18
10 -13 25 8 25 11 0 21 5 23 12 3 7 11 9 24 3 23 -10 58 -10 101 -1 22 5 33 4
33 -3 0 -6 7 -11 15 -11 8 0 15 5 15 10 0 15 19 12 38 -6 11 -12 27 -15 59
-11 32 3 43 1 43 -9 0 -8 7 -14 16 -14 11 0 15 6 11 19 -5 21 23 24 36 3 6 -9
12 -10 21 -3 7 6 44 13 82 15 38 2 86 7 106 11 32 6 36 10 35 33 -2 27 -3 27
-72 24 -39 -2 -68 -2 -65 1 5 6 82 20 113 21 14 0 17 10 17 50 0 30 4 46 9 41
5 -6 11 -94 13 -197 l3 -188 -49 -26 c-27 -14 -70 -32 -97 -40 -28 -8 -64 -30
-86 -51 l-38 -36 63 7 c35 4 76 12 90 18 l27 11 -25 7 -25 6 35 22 c19 12 43
22 52 22 10 0 26 10 38 22 l20 22 0 -55 0 -54 -40 -13 c-22 -6 -55 -12 -74
-12 -38 0 -190 -30 -281 -56 -33 -9 -86 -20 -118 -24 -87 -12 -93 -28 -12 -38
51 -5 55 -21 9 -34 -24 -7 -32 -4 -47 14 -25 30 -80 29 -127 -1 l-35 -23 48 5
c51 5 75 -8 30 -17 -45 -9 -167 -20 -182 -17 -8 2 -21 -5 -28 -16 -11 -14 -27
-18 -78 -18 -48 0 -69 -4 -82 -17 -29 -30 -5 -39 65 -24 34 7 87 11 118 8 53
-4 123 9 231 44 23 7 70 14 105 15 35 1 68 4 73 8 6 3 16 6 22 6 7 0 13 5 14
10 0 6 8 18 17 28 14 16 14 19 2 27 -8 6 -22 10 -31 10 -9 0 -19 7 -23 15 -4
11 1 15 17 15 12 0 51 6 87 14 36 8 108 24 160 35 52 10 110 24 128 30 l33 10
-3 -46 c-3 -44 -4 -46 -53 -65 -27 -11 -102 -27 -165 -35 -74 -9 -121 -20
-132 -30 -18 -16 -24 -43 -10 -43 23 0 299 73 323 86 40 20 49 12 49 -44 l0
-47 -122 -45 c-67 -25 -129 -53 -137 -62 -16 -19 -43 -28 -222 -78 -140 -39
-150 -43 -129 -65 14 -14 28 -13 140 6 156 27 195 40 195 65 0 15 12 21 61 30
80 14 191 54 191 68 -1 30 4 46 13 46 6 0 10 -23 10 -51 0 -30 -4 -48 -10 -44
-14 9 -176 -43 -192 -62 -22 -27 -74 -43 -191 -58 -109 -15 -172 -29 -192 -45
-5 -5 -55 -16 -110 -25 -55 -10 -111 -23 -125 -30 -14 -7 -47 -15 -75 -19 -65
-9 -114 -25 -145 -46 -31 -22 -124 -50 -165 -50 -18 0 -46 -5 -64 -11 l-31
-11 0 -84 0 -84 32 0 c37 0 161 57 152 71 -3 5 1 9 8 10 70 3 164 33 291 91
60 27 147 63 195 80 48 17 96 37 107 44 22 14 184 39 193 30 3 -3 -3 -6 -13
-6 -11 0 -37 -6 -60 -14 -22 -7 -58 -19 -80 -26 -63 -19 -265 -100 -318 -126
-26 -14 -91 -39 -145 -56 -53 -17 -130 -48 -170 -70 -61 -32 -83 -38 -132 -38
l-60 0 0 -75 c0 -67 2 -74 18 -68 9 3 22 10 27 14 17 12 174 67 245 84 94 24
133 38 242 89 54 25 166 66 250 91 84 26 155 50 158 54 7 10 96 55 185 92 40
16 83 41 96 55 13 14 36 32 52 40 l27 15 0 -39 0 -38 -112 -40 c-62 -21 -138
-55 -168 -75 -60 -39 -115 -59 -225 -84 -89 -20 -154 -44 -256 -95 -44 -23
-125 -52 -180 -66 -170 -42 -279 -92 -279 -128 0 -7 -18 -21 -40 -31 l-40 -18
0 -79 c0 -53 4 -78 12 -78 6 0 70 29 142 64 72 36 154 72 181 81 28 9 70 29
95 43 25 14 70 38 101 53 31 15 75 41 99 58 24 17 75 40 114 52 166 47 239 73
269 93 42 28 239 116 260 116 9 0 17 5 17 11 0 5 5 7 10 4 25 -16 3 -32 -78
-58 -48 -15 -105 -42 -127 -58 -54 -41 -86 -54 -254 -100 -153 -43 -173 -50
-205 -81 -12 -11 -51 -35 -89 -53 -37 -19 -83 -43 -102 -55 -19 -12 -69 -32
-111 -46 -42 -13 -103 -42 -136 -64 -32 -21 -90 -49 -129 -62 l-69 -22 0 -73
c0 -40 3 -73 8 -73 4 0 47 11 97 25 140 38 214 72 278 127 18 15 64 40 102 54
103 39 174 72 225 104 25 16 77 40 115 55 39 15 99 38 135 52 36 13 82 35 102
49 21 13 38 21 38 18 0 -4 8 -1 18 7 33 28 122 65 161 68 11 0 22 9 24 19 3 9
5 1 6 -19 1 -36 0 -37 -46 -49 -27 -6 -100 -33 -163 -60 -63 -26 -142 -56
-175 -65 -66 -19 -134 -51 -209 -100 -47 -31 -100 -52 -216 -86 -29 -9 -62
-31 -94 -62 -27 -26 -61 -54 -75 -61 -38 -20 -155 -53 -233 -66 -105 -18 -99
-2 -96 -252 l3 -217 40 19 c46 22 83 27 43 6 -15 -8 -41 -23 -58 -32 l-30 -18
0 -327 1 -327 22 5 c12 3 30 13 40 21 9 8 20 12 24 9 4 -4 17 3 31 15 13 13
24 22 25 20 3 -5 48 16 82 37 17 11 38 20 48 20 9 1 17 5 17 11 0 5 7 7 16 3
13 -5 11 -9 -10 -22 -30 -18 -33 -29 -10 -38 10 -3 -44 -25 -132 -52 l-149
-47 -3 -122 c-2 -91 0 -122 10 -122 9 0 9 -3 0 -12 -17 -17 -17 -298 0 -298 9
0 9 -3 0 -12 -8 -8 -12 -57 -12 -152 l0 -141 30 0 c20 0 35 8 46 23 12 18 19
21 30 11 11 -9 14 -8 14 4 0 9 10 22 23 28 12 7 25 17 29 23 7 11 13 -16 8
-39 -1 -5 2 -6 7 -2 4 5 8 15 8 24 0 8 10 22 23 31 21 14 22 13 15 -4 -6 -17
-5 -17 10 -6 8 8 13 20 10 28 -3 8 0 14 6 14 6 0 11 -5 11 -12 0 -6 10 -1 22
12 13 14 23 19 26 12 2 -7 14 -1 28 13 14 14 32 25 40 25 8 0 12 4 9 10 -3 6
-2 10 2 10 5 0 20 10 33 23 14 12 30 23 35 24 13 3 115 43 137 54 10 5 26 9
35 9 10 0 35 11 57 24 21 14 45 22 52 19 8 -3 17 2 20 11 4 9 14 16 23 15 9
-1 30 3 46 10 17 7 32 13 35 13 3 0 18 10 34 21 16 12 26 16 22 9 -5 -9 5 -10
40 -5 34 4 45 3 40 -5 -4 -7 -16 -12 -26 -12 -48 0 -208 -71 -302 -134 -15
-10 -31 -15 -37 -12 -5 3 -8 -2 -6 -11 1 -10 9 -17 16 -15 12 3 12 1 1 -10
-10 -10 -15 -10 -20 -1 -10 15 -42 11 -56 -8 -6 -8 -19 -13 -30 -11 -11 2 -16
0 -12 -7 5 -7 1 -9 -8 -5 -9 3 -16 2 -16 -4 0 -14 28 -23 35 -12 4 6 11 10 18
10 6 0 2 -6 -9 -14 -35 -26 -7 -27 49 -1 68 31 84 32 37 3 -52 -33 -145 -76
-240 -113 -82 -31 -316 -129 -372 -155 l-28 -13 0 -309 c0 -169 3 -308 6 -308
11 0 89 45 92 53 2 4 10 7 18 7 9 0 12 5 8 12 -5 8 -2 9 10 5 22 -9 146 50
146 68 0 8 8 11 20 8 12 -3 20 0 20 6 0 7 -4 10 -9 6 -5 -3 -12 -1 -15 4 -3 5
1 11 8 14 8 3 17 1 19 -6 3 -9 10 -9 30 2 14 8 26 17 25 20 0 3 0 14 1 24 1
19 27 24 33 5 3 -7 12 -9 24 -4 18 7 18 8 -6 22 -14 9 -17 13 -6 10 10 -4 26
-1 35 6 14 12 14 11 2 -4 -12 -16 -11 -18 5 -18 11 0 14 -3 9 -9 -11 -10 -174
-111 -180 -111 -2 0 -69 -31 -149 -70 l-146 -69 0 -791 0 -790 5120 0 5120 0
0 5120 0 5120 -3523 0 c-1938 0 -3527 -3 -3530 -7z m483 -253 c0 -5 -2 -10 -4
-10 -3 0 -8 5 -11 10 -3 6 -1 10 4 10 6 0 11 -4 11 -10z m804 -626 c9 -24 7
-28 -9 -14 -17 14 -20 30 -6 30 5 0 12 -7 15 -16z m1501 -944 c3 -6 -1 -7 -9
-4 -18 7 -21 14 -7 14 6 0 13 -4 16 -10z m375 -66 c0 -2 -13 -4 -30 -4 -16 0
-30 4 -30 8 0 5 14 7 30 4 17 -2 30 -6 30 -8z m-1285 -662 c0 -18 -20 -15 -23
4 -3 10 1 15 10 12 7 -3 13 -10 13 -16z m3648 -679 c2 -5 1 -51 -2 -103 -6
-95 -6 -95 -15 -42 -7 49 -10 53 -30 47 -11 -3 -32 -8 -45 -11 -14 -3 -27 -7
-31 -9 -3 -2 -21 0 -40 4 -23 5 -56 2 -97 -10 -34 -9 -112 -22 -175 -28 -62
-7 -136 -14 -163 -17 -73 -7 -80 -15 -37 -44 62 -40 82 -62 142 -150 32 -47
91 -120 133 -163 41 -42 78 -84 81 -92 3 -8 10 -15 16 -15 5 0 10 -9 10 -19 0
-11 5 -21 11 -23 6 -2 2 -14 -11 -28 -12 -14 -18 -18 -14 -10 6 12 5 13 -7 4
-8 -6 -23 -10 -34 -8 -11 2 -40 4 -65 5 -104 2 -297 101 -301 155 -1 8 -2 20
-4 27 -1 6 7 28 18 47 27 49 24 126 -7 189 -31 60 -70 101 -97 101 -57 0 -141
-62 -193 -144 -33 -52 -86 -160 -86 -175 0 -4 -12 -21 -26 -36 l-27 -29 25
-20 c13 -12 46 -39 73 -61 27 -22 69 -58 94 -81 25 -23 75 -67 111 -99 36 -32
64 -62 62 -67 -1 -5 2 -7 7 -4 16 10 22 -11 6 -24 -11 -9 -12 -17 -4 -32 6
-11 8 -23 4 -26 -3 -3 -8 4 -12 16 -6 23 -21 26 -113 23 -33 -1 -41 1 -30 9
13 8 13 10 -2 10 -10 0 -18 -5 -18 -11 0 -5 -5 -7 -10 -4 -18 11 -100 -6 -100
-21 0 -8 -2 -14 -4 -14 -2 0 -12 -3 -22 -7 -13 -5 -16 -3 -12 8 5 12 -2 15
-32 13 l-39 -2 41 52 c85 106 98 177 47 239 -66 80 -178 101 -238 45 -12 -10
-26 -16 -31 -13 -5 3 -25 -6 -45 -20 -19 -15 -39 -24 -46 -20 -6 4 -15 2 -19
-5 -5 -8 -10 -2 -14 16 -6 22 -1 33 22 58 31 32 62 130 62 195 0 36 -28 97
-57 124 -31 27 -142 67 -188 67 -28 0 -55 -9 -83 -27 -40 -26 -61 -53 -42 -53
6 0 10 -5 10 -11 0 -5 -4 -7 -10 -4 -5 3 -10 1 -10 -6 0 -6 -11 -22 -24 -34
-28 -26 -44 -98 -26 -120 7 -8 10 -33 8 -55 -3 -38 4 -51 17 -30 4 6 11 8 16
4 15 -9 -10 -34 -33 -34 -28 0 -58 -18 -58 -36 0 -9 -5 -12 -11 -8 -6 3 -15 0
-20 -7 -10 -18 -56 23 -74 66 -20 47 -47 65 -106 72 -30 3 -48 8 -42 10 7 3
17 22 23 43 14 52 -2 122 -40 174 -17 22 -30 48 -30 58 0 15 -3 16 -19 6 -16
-10 -23 -9 -40 6 -18 17 -27 18 -78 8 -32 -5 -73 -10 -91 -11 -38 0 -83 -25
-101 -54 -8 -11 -13 -38 -13 -59 1 -37 -21 -73 -38 -63 -5 3 -11 1 -15 -5 -3
-5 -1 -10 6 -10 6 0 -9 -21 -35 -46 -25 -26 -46 -55 -46 -65 0 -10 -4 -21 -10
-24 -5 -3 -10 -26 -10 -50 0 -24 5 -47 10 -50 6 -3 10 -15 10 -26 0 -38 38
-88 83 -107 31 -13 37 -37 7 -29 -11 3 -20 1 -20 -5 0 -6 -7 -8 -15 -4 -8 3
-15 1 -15 -4 0 -6 -9 -10 -21 -10 -11 0 -18 4 -15 9 3 4 -6 6 -19 3 -14 -2
-25 -8 -25 -13 0 -5 -5 -9 -11 -9 -6 0 -9 6 -6 14 8 21 -102 10 -127 -12 -14
-13 -20 -14 -23 -5 -3 10 -10 10 -24 2 -11 -5 -45 -12 -77 -15 -120 -11 -305
-43 -312 -54 -4 -6 -10 26 -13 72 -9 110 -9 833 0 841 9 10 3211 9 3216 0z
m-5613 -492 c-14 -9 -42 -32 -64 -51 -31 -28 -38 -31 -35 -15 4 20 109 98 119
88 3 -3 -6 -13 -20 -22z m230 22 c-1 -20 -29 -43 -44 -37 -19 7 -20 16 -4 32
13 13 48 16 48 5z m3130 -83 c0 -5 -5 -10 -11 -10 -5 0 -7 5 -4 10 3 6 8 10
11 10 2 0 4 -4 4 -10z m-3467 -72 c-3 -16 -10 -28 -15 -28 -5 0 -6 -4 -3 -10
3 -5 0 -7 -9 -4 -12 4 -10 11 7 39 12 18 23 32 24 31 1 0 -1 -13 -4 -28z
m3431 -32 c-6 -16 -24 -23 -24 -8 0 10 22 33 27 28 2 -2 1 -11 -3 -20z m-3484
-26 c0 -5 -4 -10 -10 -10 -5 0 -10 -10 -10 -22 0 -16 -3 -19 -8 -10 -7 10 -15
8 -35 -8 -15 -12 -27 -18 -27 -13 0 4 12 17 25 28 14 11 31 25 38 32 15 15 27
16 27 3z m-2473 -6 c-3 -3 -12 -4 -19 -1 -8 3 -5 6 6 6 11 1 17 -2 13 -5z
m711 -55 c-6 -4 -8 -11 -5 -16 3 -5 -10 -7 -29 -5 -18 2 -31 8 -28 13 3 5 10
9 15 9 6 0 18 7 26 16 13 12 18 13 24 3 4 -8 3 -16 -3 -20z m72 11 c0 -5 -4
-10 -9 -10 -6 0 -13 5 -16 10 -3 6 1 10 9 10 9 0 16 -4 16 -10z m-20 -30 c0
-5 -9 -10 -20 -10 -11 0 -20 5 -20 10 0 6 9 10 20 10 11 0 20 -4 20 -10z
m5601 -33 c-13 -13 -15 1 -4 30 7 17 8 17 11 -1 2 -10 -1 -23 -7 -29z m-3952
-40 c1 -5 -3 -6 -8 -3 -5 4 -12 0 -14 -6 -3 -7 -6 -1 -6 13 -1 32 11 46 20 22
4 -10 8 -22 8 -26z m3972 -44 c-23 -43 -27 -31 -9 27 9 28 15 35 21 25 5 -9 0
-29 -12 -52z m-571 32 c0 -12 -29 -3 -34 10 -4 13 -2 14 14 5 11 -6 20 -13 20
-15z m1088 -100 c15 -16 18 -23 8 -15 -31 24 -76 91 -76 114 0 14 7 5 21 -24
11 -25 32 -58 47 -75z m-1005 74 c28 -5 58 -10 65 -11 13 -1 16 -11 5 -21 -3
-4 -12 -2 -19 3 -6 6 -16 10 -20 9 -21 -5 -84 14 -96 29 -10 12 -10 14 0 8 6
-4 36 -12 65 -17z m-5838 1 c-3 -5 -11 -10 -16 -10 -6 0 -7 5 -4 10 3 6 11 10
16 10 6 0 7 -4 4 -10z m-345 -25 c0 -8 -7 -15 -15 -15 -26 0 -18 20 13 29 1 1
2 -6 2 -14z m195 5 c3 -5 -1 -10 -9 -10 -9 0 -16 5 -16 10 0 6 4 10 9 10 6 0
13 -4 16 -10z m2495 -11 c0 -5 -4 -9 -10 -9 -5 0 -10 7 -10 16 0 8 5 12 10 9
6 -3 10 -10 10 -16z m-2610 -4 c-7 -8 -16 -12 -21 -9 -13 8 -1 24 18 24 13 0
13 -3 3 -15z m56 -10 c-8 -8 -19 -15 -25 -15 -6 0 -11 7 -11 15 0 9 10 15 26
15 23 0 24 -2 10 -15z m97 0 c3 -15 -54 -19 -67 -4 -6 7 -6 9 -1 6 6 -3 17 -1
25 4 18 11 40 8 43 -6z m-319 -10 c-7 -17 -20 -20 -28 -6 -4 5 0 12 6 14 23 9
28 7 22 -8z m132 -21 c-6 -17 -8 -17 -24 0 -15 15 -15 18 -2 26 19 12 35 -3
26 -26z m-76 5 c0 -5 5 -7 12 -3 7 4 8 3 4 -4 -4 -7 -13 -12 -19 -12 -7 0 -18
-9 -24 -19 -8 -13 -19 -18 -33 -14 -22 6 -28 23 -7 23 7 0 20 9 30 20 18 22
37 26 37 9z m180 -4 c0 -2 -17 -9 -37 -15 -21 -7 -43 -18 -48 -25 -6 -7 -29
-16 -50 -20 -33 -5 -37 -4 -21 6 10 6 27 19 38 28 10 9 28 18 39 21 28 7 79
10 79 5z m7440 -30 c0 -12 -19 -12 -23 0 -4 9 -1 12 9 8 7 -3 14 -7 14 -8z
m-303 -107 c-2 -24 -4 -7 -4 37 0 44 2 63 4 43 2 -21 2 -57 0 -80z m188 92 c3
-6 -1 -7 -9 -4 -18 7 -21 14 -7 14 6 0 13 -4 16 -10z m-7600 -10 c8 -13 -15
-13 -35 0 -12 8 -11 10 7 10 12 0 25 -4 28 -10z m95 0 c0 -5 -2 -10 -4 -10 -3
0 -8 5 -11 10 -3 6 -1 10 4 10 6 0 11 -4 11 -10z m7365 0 c3 -5 2 -10 -4 -10
-5 0 -13 5 -16 10 -3 6 -2 10 4 10 5 0 13 -4 16 -10z m-7410 -53 c-16 -9 -45
7 -45 23 0 16 35 17 48 1 10 -12 9 -17 -3 -24z m140 23 c3 -6 -2 -13 -12 -16
-10 -3 -28 -11 -40 -16 -12 -6 -30 -7 -40 -3 -15 6 -13 9 15 17 17 5 32 13 32
18 0 13 37 13 45 0z m6405 6 c0 -11 -19 -15 -25 -6 -3 5 1 10 9 10 9 0 16 -2
16 -4z m860 -16 c0 -5 -4 -10 -10 -10 -5 0 -10 5 -10 10 0 6 5 10 10 10 6 0
10 -4 10 -10z m-3809 -43 c-10 -9 -11 -8 -5 6 3 10 9 15 12 12 3 -3 0 -11 -7
-18z m2904 -5 c-6 -7 -34 11 -29 19 3 5 11 3 19 -4 7 -6 12 -13 10 -15z
m-6478 -5 c-6 -18 -43 -20 -74 -3 -28 15 -28 15 25 14 35 0 52 -4 49 -11z
m7330 -59 c-3 -8 -6 -5 -6 6 -1 11 2 17 5 13 3 -3 4 -12 1 -19z m1563 -27 c0
-6 -4 -13 -10 -16 -5 -3 -10 1 -10 9 0 9 5 16 10 16 6 0 10 -4 10 -9z m-1380
-241 c0 -3 -7 -15 -15 -26 -13 -18 -14 -16 -14 26 0 42 1 44 14 26 8 -11 15
-23 15 -26z m-6340 -237 l0 -58 -63 -19 c-92 -28 -177 -45 -217 -45 -25 0 -7
8 60 25 52 14 118 35 146 48 47 22 52 28 59 65 4 23 9 41 11 41 2 0 4 -26 4
-57z m335 -503 c72 -16 276 -65 455 -109 179 -43 340 -82 358 -86 18 -4 31 -9
28 -12 -6 -6 -221 42 -566 127 -151 37 -313 76 -360 85 -47 10 -92 22 -100 27
-19 11 15 5 185 -32z m-325 -109 c0 -5 -17 -16 -37 -24 -21 -8 -77 -33 -124
-55 -82 -38 -144 -60 -236 -82 -22 -6 -63 -26 -90 -45 -65 -46 -123 -77 -123
-67 0 5 25 29 55 53 44 35 83 53 207 95 84 28 191 69 238 92 87 42 110 49 110
33z m1213 -108 c-7 -2 -19 -2 -25 0 -7 3 -2 5 12 5 14 0 19 -2 13 -5z m44 -9
c-3 -3 -12 -4 -19 -1 -8 3 -5 6 6 6 11 1 17 -2 13 -5z m-1189 -30 c39 -11 24
-19 -70 -37 -51 -9 -104 -19 -118 -22 l-25 -5 26 12 c14 7 34 19 43 27 10 8
36 18 59 22 59 9 60 9 85 3z m209 -75 l28 -12 -30 -8 c-16 -5 -51 -11 -78 -12
-38 -3 -47 0 -45 12 2 8 -5 17 -16 19 -10 2 -16 0 -12 -6 3 -5 -5 -7 -20 -4
-60 11 32 33 108 26 20 -2 49 -9 65 -15z m-234 -16 c-7 -2 -19 -2 -25 0 -7 3
-2 5 12 5 14 0 19 -2 13 -5z m-30 -15 c15 -7 29 -19 32 -26 3 -8 -3 -7 -19 3
-17 11 -36 14 -67 9 -48 -7 -74 -25 -95 -65 -7 -15 -26 -30 -41 -34 -15 -3
-43 -13 -62 -22 -20 -9 -39 -16 -43 -15 -3 1 -12 -5 -18 -13 -7 -8 -19 -15
-27 -15 -10 0 -13 -6 -9 -17 3 -10 -5 -5 -18 11 -18 22 -28 27 -46 21 -15 -5
-20 -4 -16 4 4 6 14 11 22 11 9 0 54 20 102 45 48 25 111 53 140 64 29 10 52
22 50 27 -2 5 11 12 27 15 47 10 59 10 88 -3z m77 -2 c0 -2 -7 -6 -15 -10 -8
-3 -15 -1 -15 4 0 6 7 10 15 10 8 0 15 -2 15 -4z m-580 -41 c0 -2 -18 -9 -41
-15 -22 -6 -48 -14 -57 -17 -9 -3 -14 -3 -10 1 14 17 108 43 108 31z m1390
-75 c236 -61 249 -66 243 -90 -4 -16 2 -19 38 -22 43 -3 44 -4 43 -35 -2 -31
0 -33 30 -33 17 0 38 4 45 9 18 11 55 -5 46 -20 -4 -5 -24 -19 -47 -30 -22
-11 -59 -37 -81 -58 -23 -20 -59 -48 -79 -61 -20 -13 -34 -28 -32 -32 3 -4 -3
-8 -13 -8 -10 0 -24 -10 -32 -22 -10 -18 -11 -20 0 -10 15 14 29 16 29 3 0
-15 -63 -81 -77 -81 -7 0 -13 -3 -13 -7 0 -19 -175 -113 -209 -113 -11 0 -23
-5 -27 -11 -3 -6 -10 -7 -15 -2 -9 9 -109 2 -254 -18 -168 -24 -243 -46 -387
-113 -84 -39 -88 -41 -88 -26 0 16 179 97 275 123 50 14 122 31 160 37 39 6
88 15 110 21 36 8 77 16 97 18 4 1 5 15 1 33 -4 20 -3 29 4 25 6 -4 13 2 16
12 3 12 -1 22 -10 25 -8 3 -11 10 -8 16 3 6 -4 10 -17 11 -23 1 -23 1 2 9 l25
8 -25 1 c-65 3 -566 -116 -678 -161 -29 -11 -56 -18 -60 -14 -11 12 17 24 153
66 72 23 151 48 178 56 26 9 47 19 47 23 0 16 35 48 48 44 7 -3 10 1 6 11 -3
9 -1 16 5 16 6 0 11 7 11 16 0 8 4 13 9 9 13 -8 25 15 14 26 -10 10 -54 16
-132 18 -30 0 -52 3 -50 6 3 2 38 9 79 16 103 15 115 25 44 33 -33 4 -72 12
-87 18 -24 9 -27 15 -22 39 5 22 2 29 -14 34 -20 6 -61 62 -61 83 0 12 108 48
230 77 41 10 122 30 180 45 58 16 116 28 130 29 14 0 113 -22 220 -49z m-1510
35 c0 -2 -10 -9 -22 -15 -22 -11 -22 -10 -4 4 21 17 26 19 26 11z m-50 -35 c0
-5 -5 -10 -11 -10 -5 0 -7 5 -4 10 3 6 8 10 11 10 2 0 4 -4 4 -10z m-45 -10
c-3 -5 -12 -10 -19 -10 -7 0 -25 -9 -40 -21 -34 -27 -244 -111 -370 -149 -124
-37 -142 -38 -51 -1 39 15 79 31 90 36 11 4 29 10 40 12 11 2 22 8 23 13 2 6
13 10 24 10 12 0 36 11 53 25 18 13 35 21 39 18 3 -4 6 0 6 7 0 7 3 10 7 7 3
-4 16 1 27 12 12 10 39 22 61 25 22 3 54 10 70 15 41 13 47 13 40 1z m509 -65
c-12 -9 -14 -14 -6 -15 7 0 11 -4 7 -10 -3 -5 -11 -7 -18 -4 -7 2 -28 -12 -47
-33 -30 -32 -35 -34 -39 -17 -2 10 -7 24 -13 31 -6 8 -2 15 13 23 17 10 20 9
13 -1 -4 -7 17 1 47 19 53 30 80 35 43 7z m301 -31 c-22 -17 -131 -50 -190
-58 -23 -3 10 11 75 34 127 43 145 47 115 24z m-327 -36 c-8 -12 -25 -28 -39
-37 -18 -11 -16 -6 10 22 39 42 50 48 29 15z m93 -187 c-26 -20 -100 -46 -107
-38 -3 2 10 10 28 16 18 7 47 19 63 26 41 19 44 18 16 -4z m2664 -155 c17 -12
14 -14 -30 -30 -27 -9 -49 -16 -50 -16 0 0 -2 14 -3 30 -2 28 0 30 31 30 18 0
41 -6 52 -14z m2535 -16 c-8 -5 -22 -9 -30 -9 -10 0 -8 3 5 9 27 12 43 12 25
0z m-3714 -17 c-8 -8 -239 -128 -381 -198 -88 -43 -219 -86 -300 -98 -24 -4
-2 7 55 27 114 39 292 124 285 136 -3 4 3 6 14 3 10 -3 21 2 24 10 3 8 20 18
37 22 31 7 198 76 230 95 18 11 46 13 36 3z m3554 -23 c-8 -5 -19 -10 -25 -10
-5 0 -3 5 5 10 8 5 20 10 25 10 6 0 3 -5 -5 -10z m-4270 -15 c11 -13 10 -14
-4 -9 -9 3 -16 10 -16 15 0 13 6 11 20 -6z m-23 -271 c-3 -3 -12 -4 -19 -1 -8
3 -5 6 6 6 11 1 17 -2 13 -5z m-1280 -385 c-14 -8 -17 -18 -12 -37 4 -15 4
-24 0 -20 -4 3 -26 -2 -49 -12 -59 -25 -396 -107 -396 -96 0 2 33 14 73 27 88
28 83 26 107 28 11 0 20 8 20 16 0 9 6 12 17 8 10 -4 14 -2 10 4 -4 6 1 10 11
9 10 0 16 5 14 13 -2 10 4 12 20 8 14 -4 29 0 41 11 23 21 102 50 137 51 22 0
23 -1 7 -10z m-47 -183 c0 -2 -7 -7 -16 -10 -8 -3 -12 -2 -9 4 6 10 25 14 25
6z m244 -35 c6 -10 -160 -67 -291 -100 -45 -12 -105 -30 -134 -41 -28 -12 -53
-19 -55 -17 -9 9 284 119 391 147 85 22 83 22 89 11z m-328 -16 c-15 -8 -33
-15 -40 -15 -16 1 36 29 54 30 8 0 2 -7 -14 -15z m-56 -21 c0 -6 -65 -34 -77
-33 -4 0 10 9 32 19 48 22 45 21 45 14z m-94 -43 c-8 -12 -46 -21 -46 -11 0 5
8 11 18 13 29 8 33 7 28 -2z m-239 -87 c-3 -3 -12 -4 -19 -1 -8 3 -5 6 6 6 11
1 17 -2 13 -5z m103 -48 c0 -6 -74 -44 -140 -72 -49 -21 -52 -22 -30 -4 14 11
32 26 40 32 8 7 15 12 15 10 0 -3 32 8 80 28 23 10 35 12 35 6z m1589 -430
c-11 -10 -153 -66 -157 -61 -3 2 4 8 14 11 10 4 44 17 74 30 51 21 79 30 69
20z m-189 -80 c-14 -7 -36 -16 -50 -20 -14 -3 -7 3 15 13 45 22 73 27 35 7z
m-85 -36 c-3 -5 -12 -10 -18 -10 -7 0 -6 4 3 10 19 12 23 12 15 0z m-1335
-450 c0 -5 -4 -10 -10 -10 -5 0 -10 5 -10 10 0 6 5 10 10 10 6 0 10 -4 10 -10z
m2084 -122 c-16 -13 -33 -26 -39 -31 -5 -4 -46 -29 -91 -56 -44 -26 -107 -68
-140 -94 -32 -26 -83 -67 -112 -90 -29 -23 -68 -54 -85 -70 -18 -15 -50 -39
-72 -54 -22 -16 -42 -30 -45 -33 -3 -3 -21 -17 -40 -30 -19 -13 -38 -29 -42
-35 -4 -5 -8 -6 -8 -1 0 6 -9 0 -21 -13 -21 -23 -46 -23 -41 -1 1 7 -5 19 -15
26 -17 13 -17 14 2 7 11 -3 25 -10 32 -15 7 -6 14 -4 19 3 4 8 3 9 -4 5 -7 -4
-12 -5 -12 -2 0 2 -3 11 -6 20 -4 11 -1 16 10 16 9 0 16 -4 16 -10 0 -5 7 -10
16 -10 8 0 13 4 9 9 -3 6 3 15 14 20 26 14 34 40 19 60 -9 11 -6 11 9 -2 23
-20 48 -14 39 9 -3 8 0 11 10 7 17 -6 19 13 2 21 -7 3 -4 4 7 3 12 -1 19 3 17
11 -3 18 15 15 26 -4 14 -26 35 -8 21 18 -10 18 -9 20 5 15 11 -4 19 0 23 11
4 9 15 23 25 30 10 7 15 18 12 24 -4 7 6 9 29 6 27 -3 34 -1 26 8 -7 9 -5 15
8 23 10 6 14 11 10 11 -13 0 -85 -39 -92 -50 -3 -5 -10 -10 -15 -10 -6 0 -2 9
7 20 10 11 21 20 25 20 4 0 19 11 34 25 14 13 30 22 34 20 5 -3 11 1 14 7 3 7
4 4 3 -7 -1 -11 5 -21 16 -23 9 -2 17 1 17 7 0 6 -5 11 -12 11 -9 0 -9 3 0 12
9 9 15 9 24 0 7 -7 17 -12 23 -12 5 0 4 4 -4 9 -17 11 -23 39 -10 47 5 3 12
-2 15 -10 3 -9 11 -13 16 -10 6 4 6 9 -2 14 -7 4 -9 13 -5 20 5 8 10 9 18 1
17 -17 29 -13 22 8 -4 15 -1 19 12 17 9 -2 19 -8 21 -14 2 -7 8 -12 13 -12 13
0 11 28 -3 32 -7 3 -5 7 6 11 10 4 15 3 11 -3 -3 -6 5 -10 19 -10 14 0 25 3
25 8 -3 19 2 26 10 13 7 -11 14 -9 34 12 15 14 27 21 29 16 2 -5 19 2 38 15
44 31 63 34 24 4z m-1570 -173 c-31 -26 -44 -31 -44 -16 0 10 46 38 64 40 5 1
-4 -10 -20 -24z m-54 -34 c0 -5 -8 -11 -17 -15 -10 -3 -24 -9 -30 -12 -23 -10
-14 11 10 22 29 15 37 16 37 5z m1125 -61 c-3 -5 -11 -10 -16 -10 -6 0 -7 5
-4 10 3 6 11 10 16 10 6 0 7 -4 4 -10z m-1410 -98 c-17 -16 -34 -26 -38 -24
-11 5 3 20 35 37 35 20 35 18 3 -13z m1255 -32 c0 -5 -2 -10 -4 -10 -3 0 -8 5
-11 10 -3 6 -1 10 4 10 6 0 11 -4 11 -10z m-1350 -49 c-24 -22 -48 -37 -52
-35 -11 7 10 34 26 34 7 0 23 11 36 25 13 14 26 23 28 20 3 -2 -15 -22 -38
-44z m1340 19 c0 -5 -4 -10 -10 -10 -5 0 -10 5 -10 10 0 6 5 10 10 10 6 0 10
-4 10 -10z m-98 -82 c-17 -17 -15 -28 5 -28 15 0 10 -15 -5 -15 -4 -1 -17 -6
-29 -13 -27 -15 -32 2 -5 17 9 6 13 11 8 11 -9 0 23 40 33 40 3 0 0 -5 -7 -12z
m-62 -36 c-8 -2 -21 -11 -27 -20 -10 -12 -13 -12 -13 -3 0 18 32 41 44 33 6
-3 3 -8 -4 -10z m0 -42 c0 -5 -5 -10 -11 -10 -5 0 -7 5 -4 10 3 6 8 10 11 10
2 0 4 -4 4 -10z"/>
<path d="M6108 6888 c9 -9 15 -9 24 0 9 9 7 12 -12 12 -19 0 -21 -3 -12 -12z"/>
<path d="M7505 6860 c-3 -5 -1 -10 4 -10 6 0 11 5 11 10 0 6 -2 10 -4 10 -3 0
-8 -4 -11 -10z"/>
<path d="M7555 6811 c-3 -5 -1 -12 5 -16 12 -7 30 2 30 16 0 12 -27 12 -35 0z"/>
<path d="M6700 6580 c0 -5 7 -10 15 -10 8 0 15 5 15 10 0 6 -7 10 -15 10 -8 0
-15 -4 -15 -10z"/>
<path d="M5748 6553 c-33 -8 -18 -19 22 -15 22 2 40 8 40 13 0 9 -31 10 -62 2z"/>
<path d="M7445 6426 c-51 -16 -85 -34 -85 -46 0 -15 17 -12 62 10 23 11 47 20
54 20 15 0 27 17 17 23 -5 3 -26 -1 -48 -7z"/>
<path d="M1746 1251 c-4 -7 -5 -15 -2 -18 9 -9 19 4 14 18 -4 11 -6 11 -12 0z"/>
<path d="M3366 10132 c-3 -4 4 -9 15 -9 23 -2 25 3 4 10 -8 4 -16 3 -19 -1z"/>
<path d="M4780 9121 c0 -6 4 -13 10 -16 6 -3 7 1 4 9 -7 18 -14 21 -14 7z"/>
<path d="M5133 8293 c-21 -8 -15 -20 13 -27 25 -7 54 7 54 25 0 9 -46 11 -67
2z"/>
<path d="M4180 8185 c-175 -19 -177 -21 -21 -18 104 2 148 0 159 -9 13 -10 14
-10 8 0 -4 7 -1 12 8 12 9 0 16 7 16 15 0 17 -7 17 -170 0z"/>
<path d="M3943 8153 c9 -2 23 -2 30 0 6 3 -1 5 -18 5 -16 0 -22 -2 -12 -5z"/>
<path d="M1327 7884 c-8 -8 1 -24 14 -24 5 0 9 7 9 15 0 15 -12 20 -23 9z"/>
<path d="M630 6090 c-12 -8 -9 -10 13 -10 15 0 27 5 27 10 0 13 -20 13 -40 0z"/>
<path d="M720 6085 c0 -8 -9 -15 -20 -15 -11 0 -20 -4 -20 -10 0 -15 32 -12
54 5 11 8 26 15 33 15 21 0 15 -20 -9 -29 -18 -6 -19 -9 -5 -14 10 -4 33 3 54
16 l38 22 -27 3 c-16 2 -28 8 -28 13 0 5 -16 9 -35 9 -24 0 -35 -5 -35 -15z"/>
<path d="M905 6080 c3 -5 11 -10 16 -10 6 0 7 5 4 10 -3 6 -11 10 -16 10 -6 0
-7 -4 -4 -10z"/>
<path d="M1036 6059 c-13 -15 -15 -24 -7 -29 7 -3 9 -14 5 -23 -8 -22 28 -23
46 -2 7 8 23 15 36 15 25 0 32 14 13 26 -6 3 -16 1 -22 -5 -13 -13 -67 -15
-67 -2 0 5 9 13 20 16 11 4 18 11 15 16 -9 14 -19 11 -39 -12z"/>
<path d="M974 6056 c-3 -9 -12 -16 -20 -16 -8 0 -14 -4 -14 -10 0 -13 10 -13
43 3 27 12 31 27 9 35 -7 2 -15 -3 -18 -12z"/>
<path d="M1190 6054 c0 -8 5 -12 10 -9 6 3 10 10 10 16 0 5 -4 9 -10 9 -5 0
-10 -7 -10 -16z"/>
<path d="M853 6039 c-24 -10 -43 -16 -43 -13 0 2 -9 0 -20 -6 -34 -18 -22 -28
18 -14 20 7 47 13 58 14 23 0 50 25 37 33 -4 2 -27 -4 -50 -14z"/>
<path d="M669 6014 c-12 -15 -11 -16 11 -9 35 10 49 25 23 25 -11 0 -27 -7
-34 -16z"/>
<path d="M1242 6015 c-8 -10 -22 -13 -37 -9 -15 4 -38 -2 -62 -14 -21 -11 -46
-23 -55 -26 -10 -3 -18 -10 -18 -16 0 -8 6 -8 20 0 11 6 20 8 20 4 0 -3 6 -2
13 3 6 6 40 18 75 28 35 11 62 24 62 32 0 16 -2 16 -18 -2z"/>
<path d="M885 6000 c-24 -27 -14 -35 15 -12 14 11 19 21 13 25 -6 4 -18 -2
-28 -13z"/>
<path d="M681 5986 c-7 -8 -23 -17 -36 -20 -14 -4 -25 -10 -25 -15 0 -6 11 -6
28 -1 64 20 92 33 86 41 -8 14 -40 11 -53 -5z"/>
<path d="M948 5988 c-35 -12 -39 -43 -5 -32 27 8 47 23 47 35 0 11 -7 10 -42
-3z"/>
<path d="M562 5970 c-7 -12 -23 -20 -38 -20 -14 0 -41 -12 -59 -26 -19 -14
-36 -25 -39 -25 -52 7 -88 -2 -116 -29 -17 -16 -37 -30 -45 -30 -9 0 -23 -4
-33 -9 -9 -5 -36 -18 -60 -30 -25 -14 -57 -22 -80 -20 -20 1 -49 -2 -65 -6
-23 -6 -27 -13 -27 -41 0 -33 1 -33 28 -22 15 7 42 20 60 30 18 10 43 18 55
18 13 0 32 7 43 15 25 19 45 19 38 0 -4 -8 -1 -15 5 -15 6 0 11 -6 11 -14 0
-18 34 -26 68 -15 15 4 39 11 55 14 15 3 27 10 27 16 0 12 -69 8 -102 -6 -10
-4 -18 -3 -18 3 0 5 14 15 30 22 53 22 47 33 -14 28 -33 -3 -53 -1 -48 4 8 8
41 11 150 17 22 2 13 21 -10 22 -19 0 -17 3 12 17 22 10 67 17 120 18 93 2
155 18 130 34 -20 13 -67 13 -75 0 -3 -5 -21 -10 -38 -10 -30 1 -31 1 -13 15
11 8 30 15 41 15 20 0 55 28 55 43 0 16 -36 6 -48 -13z"/>
<path d="M777 5970 c-10 -12 -29 -20 -47 -20 -19 0 -33 -7 -40 -19 -9 -18 -8
-19 28 -9 20 6 42 13 47 16 6 4 15 7 20 7 22 2 65 25 65 35 0 18 -55 11 -73
-10z"/>
<path d="M1006 5964 c-9 -23 -3 -26 28 -18 14 3 26 12 26 20 0 20 -46 18 -54
-2z"/>
<path d="M837 5942 c-38 -17 -40 -32 -4 -32 17 0 16 -3 -8 -28 -16 -17 -35
-28 -48 -26 -12 1 -30 3 -40 3 -30 2 -10 18 30 26 27 5 33 9 22 16 -24 15 -69
10 -99 -12 -22 -17 -37 -20 -65 -16 -43 7 -65 0 -65 -20 0 -13 10 -15 66 -9
37 4 69 8 73 9 3 1 8 -2 11 -8 3 -5 -13 -14 -35 -18 -22 -5 -57 -13 -77 -19
-26 -8 -41 -8 -50 -1 -7 6 -29 14 -48 18 -33 7 -34 8 -12 16 28 11 20 29 -12
29 -31 0 -55 -27 -29 -33 13 -3 3 -11 -32 -27 l-50 -24 40 -5 c22 -4 62 -3 89
1 28 4 51 6 53 4 7 -6 -195 -66 -223 -66 -16 0 -41 -6 -56 -14 -15 -8 -40 -17
-57 -21 -37 -8 -55 -28 -46 -55 5 -14 1 -22 -12 -26 -10 -3 -27 -10 -38 -14
-11 -5 -36 -12 -55 -16 -31 -6 -33 -5 -22 9 8 9 29 21 48 27 19 7 34 18 34 27
0 9 -6 13 -14 10 -7 -3 -17 -2 -22 3 -5 4 -26 1 -47 -7 l-37 -15 0 -74 0 -73
43 15 c53 20 211 54 247 54 15 0 47 7 71 16 24 9 66 18 93 19 70 5 96 13 96
31 0 8 10 19 23 24 19 9 19 10 -8 6 -44 -7 -116 -22 -147 -31 -22 -6 -28 -4
-28 8 0 11 14 17 48 22 26 3 61 10 77 15 17 5 41 7 55 4 14 -3 70 7 125 22 55
14 123 30 150 36 83 16 126 31 114 38 -13 8 41 50 64 50 8 0 20 6 26 13 6 8
29 19 52 26 49 15 121 60 114 72 -7 10 -64 -9 -86 -27 -8 -8 -23 -14 -31 -14
-9 0 -18 -7 -22 -15 -6 -16 -36 -21 -36 -6 0 5 -8 12 -17 14 -14 4 -13 5 4 6
34 2 73 23 73 39 0 10 -7 13 -22 8 -13 -3 -29 -6 -36 -6 -7 0 -32 -18 -56 -40
-35 -33 -56 -43 -103 -51 -32 -5 -73 -13 -90 -16 -25 -4 -33 -2 -33 9 0 10 14
18 43 22 23 3 55 8 71 11 16 2 41 16 56 30 14 14 34 25 43 25 9 0 17 7 17 15
0 23 -45 18 -62 -6 -11 -17 -19 -20 -38 -14 l-23 7 23 18 c20 15 21 18 5 23
-9 4 -17 7 -18 6 -1 0 -19 -8 -40 -17z m203 -101 c0 -5 -8 -11 -17 -15 -10 -3
-25 -10 -33 -15 -8 -5 -37 -13 -65 -19 -27 -6 -69 -16 -92 -22 -38 -11 -46
-10 -73 7 l-30 19 57 -3 c45 -3 77 3 143 26 91 32 110 36 110 22z m-326 -50
c7 -10 -37 -31 -66 -31 -11 0 -40 -13 -65 -30 -49 -33 -96 -42 -72 -14 7 8 26
22 43 31 17 9 33 19 36 23 5 6 78 26 107 29 6 0 14 -3 17 -8z m71 -50 c16 -7
9 -10 -30 -16 -27 -4 -78 -16 -113 -27 -58 -18 -114 -20 -67 -3 11 4 47 18 80
31 62 24 96 28 130 15z m-309 -50 c-7 -10 -105 -36 -112 -29 -2 3 10 13 28 21
35 18 93 23 84 8z m-131 -61 c3 -5 -2 -10 -12 -10 -10 0 -27 -6 -38 -14 -11
-7 -54 -21 -95 -31 -41 -9 -85 -21 -97 -27 -11 -6 -27 -8 -35 -5 -7 3 4 12 27
21 22 9 54 23 70 31 27 13 130 41 162 44 6 1 15 -3 18 -9z"/>
<path d="M1240 5945 c-17 -21 -8 -28 15 -11 11 8 14 15 8 19 -6 4 -16 0 -23
-8z"/>
<path d="M1150 5940 c-13 -8 -13 -10 2 -10 9 0 20 5 23 10 8 13 -5 13 -25 0z"/>
<path d="M1245 5830 c-3 -5 -1 -10 4 -10 6 0 11 5 11 10 0 6 -2 10 -4 10 -3 0
-8 -4 -11 -10z"/>
<path d="M73 5709 c-40 -22 -73 -47 -73 -55 0 -12 5 -12 32 1 18 8 51 19 73
25 50 12 108 47 100 60 -12 20 -62 8 -132 -31z"/>
<path d="M1245 5730 c-11 -4 -55 -15 -97 -25 -43 -9 -78 -20 -78 -25 0 -15
-54 -28 -71 -17 -18 12 -49 3 -49 -13 0 -8 32 -10 100 -7 82 4 110 10 154 31
30 15 57 34 60 43 8 20 5 22 -19 13z"/>
<path d="M1190 5583 c-41 -13 -112 -31 -157 -39 -46 -8 -102 -21 -126 -29 -56
-20 -73 -20 -57 0 10 12 9 16 -5 21 -17 7 -143 0 -151 -8 -2 -3 3 -19 12 -37
20 -40 16 -44 -70 -60 -33 -7 -77 -16 -97 -22 -37 -9 -126 -13 -117 -4 2 3 42
12 89 21 102 19 189 42 169 44 -8 1 -28 3 -45 3 -19 1 -29 7 -27 15 2 10 -5
12 -25 8 -15 -3 -48 -8 -73 -11 -51 -8 -90 -29 -90 -49 0 -8 -17 -20 -37 -27
-21 -6 -74 -29 -118 -49 -44 -21 -107 -43 -140 -50 -109 -21 -125 -28 -125
-59 0 -15 5 -32 12 -39 9 -9 9 -12 0 -12 -8 0 -12 -19 -12 -55 l0 -55 33 0
c52 1 137 25 212 59 39 18 113 41 165 51 52 10 109 23 125 29 17 5 49 15 73
21 39 10 43 14 40 38 -3 26 -6 27 -62 30 -89 5 -179 -13 -264 -52 -44 -20
-100 -37 -132 -40 l-55 -5 60 18 c33 10 76 28 96 40 40 23 145 45 279 56 153
13 326 61 420 117 25 15 72 36 105 48 33 12 79 28 102 36 35 13 83 59 71 69
-2 1 -37 -8 -78 -22z m-370 -93 c0 -5 -8 -10 -17 -10 -15 0 -16 2 -3 10 19 12
20 12 20 0z"/>
<path d="M145 5510 c-52 -13 -145 -58 -145 -71 0 -7 8 -9 23 -4 12 4 38 9 57
12 33 5 32 3 -20 -24 -52 -28 -55 -31 -58 -72 l-3 -43 33 5 c18 3 54 9 81 13
26 3 47 10 47 14 0 9 65 40 159 76 112 43 107 59 -15 51 -55 -3 -114 -9 -133
-13 -22 -5 -32 -4 -28 3 4 6 21 13 38 17 34 6 59 23 59 37 0 11 -52 10 -95 -1z"/>
<path d="M430 2509 c0 -5 5 -7 10 -4 6 3 10 8 10 11 0 2 -4 4 -10 4 -5 0 -10
-5 -10 -11z"/>
<path d="M385 1810 c-3 -5 1 -10 9 -10 9 0 16 5 16 10 0 6 -4 10 -9 10 -6 0
-13 -4 -16 -10z"/>
</g>
</svg>
